<svg width="750" height="500" viewBox="0 0 750 500" fill="none" xmlns="http://www.w3.org/2000/svg">
<path d="M685.443 125.359L691.33 115.868L688.423 114.068C687.568 113.538 687.105 112.572 687.191 111.57C687.238 111.016 687.256 110.459 687.244 109.9C687.222 108.897 687.746 107.964 688.63 107.49L691.643 105.874L686.363 96.029L683.351 97.645C682.467 98.119 681.4 98.039 680.577 97.466C680.118 97.147 679.644 96.853 679.157 96.586C678.275 96.103 677.726 95.182 677.758 94.177L677.866 90.759L666.703 90.412L666.6 93.842C666.57 94.848 665.953 95.723 665.044 96.153C664.797 96.27 664.552 96.393 664.31 96.523C664.067 96.653 663.829 96.789 663.596 96.93C662.739 97.448 661.674 97.478 660.823 96.951L657.895 95.137L652.008 104.628L654.92 106.435C655.774 106.966 656.237 107.933 656.15 108.935C656.102 109.487 656.084 110.042 656.095 110.598C656.116 111.6 655.592 112.532 654.709 113.005L651.695 114.621L656.975 124.466L659.989 122.85C660.872 122.376 661.938 122.456 662.761 123.027C663.218 123.344 663.691 123.636 664.177 123.901C665.06 124.383 665.61 125.304 665.579 126.309L665.473 129.734L676.636 130.081L676.743 126.654C676.774 125.652 677.389 124.78 678.295 124.351C678.543 124.234 678.79 124.109 679.035 123.978C679.277 123.848 679.516 123.712 679.75 123.571C680.612 123.051 681.681 123.021 682.537 123.552L685.443 125.359ZM675.991 118.311C671.539 120.699 665.999 119.026 663.611 114.574C661.223 110.122 662.891 104.574 667.343 102.186C671.795 99.798 677.347 101.474 679.735 105.926C682.123 110.379 680.443 115.923 675.991 118.311Z" fill="#EBEBEB"/>
<path d="M127.882 358.897L123.972 352.12L121.898 353.318C121.288 353.67 120.538 353.637 119.948 353.252C119.622 353.039 119.284 352.844 118.935 352.666C118.309 352.348 117.906 351.715 117.906 351.013V348.618H110.08V351.013C110.08 351.716 109.677 352.348 109.051 352.666C108.702 352.843 108.364 353.039 108.038 353.252C107.448 353.636 106.698 353.671 106.088 353.318L104.014 352.12L100.104 358.897L102.188 360.096C102.799 360.448 103.135 361.118 103.099 361.822C103.089 362.013 103.084 362.205 103.084 362.398C103.084 362.591 103.089 362.783 103.099 362.974C103.135 363.675 102.801 364.342 102.194 364.693L100.105 365.9L104.015 372.677L106.095 371.478C106.705 371.126 107.456 371.161 108.046 371.546C108.371 371.758 108.707 371.953 109.055 372.13C109.68 372.449 110.082 373.081 110.082 373.783V376.179H117.908V373.783C117.908 373.081 118.31 372.449 118.935 372.13C119.282 371.953 119.619 371.758 119.944 371.546C120.534 371.161 121.284 371.126 121.895 371.478L123.975 372.677L127.885 365.9L125.805 364.7C125.196 364.349 124.862 363.681 124.897 362.979C124.907 362.787 124.911 362.594 124.911 362.399C124.911 362.206 124.906 362.014 124.897 361.823C124.861 361.119 125.197 360.448 125.808 360.096L127.882 358.897ZM120.401 362.398C120.401 365.937 117.534 368.804 113.995 368.804C110.456 368.804 107.583 365.938 107.583 362.398C107.583 358.858 110.456 355.986 113.995 355.986C117.534 355.986 120.401 358.859 120.401 362.398Z" fill="#EBEBEB"/>
<path d="M96.0771 259.195C79.2451 259.195 65.6061 272.834 65.6061 289.666C65.6061 306.491 79.2451 320.137 96.0771 320.137C112.902 320.137 126.548 306.491 126.548 289.666C126.548 272.834 112.902 259.195 96.0771 259.195ZM96.0771 303.893C88.2161 303.893 81.8431 297.527 81.8431 289.666C81.8431 281.805 88.2161 275.432 96.0771 275.432C103.938 275.432 110.311 281.805 110.311 289.666C110.311 297.528 103.938 303.893 96.0771 303.893Z" fill="#EBEBEB"/>
<path d="M101.936 260.459H90.218L90.866 252.164H101.288L101.936 260.459Z" fill="#EBEBEB"/>
<path d="M79.6321 264.407L71.3461 272.693L65.9391 266.369L73.3091 259L79.6321 264.407Z" fill="#EBEBEB"/>
<path d="M66.653 282.969V294.687L58.358 294.039V283.617L66.653 282.969Z" fill="#EBEBEB"/>
<path d="M70.6011 305.273L78.8871 313.559L72.5631 318.966L65.1941 311.596L70.6011 305.273Z" fill="#EBEBEB"/>
<path d="M89.1641 318.252H100.882L100.234 326.547H89.8121L89.1641 318.252Z" fill="#EBEBEB"/>
<path d="M111.467 314.304L119.753 306.018L125.16 312.342L117.791 319.711L111.467 314.304Z" fill="#EBEBEB"/>
<path d="M124.447 295.742V284.024L132.741 284.672V295.094L124.447 295.742Z" fill="#EBEBEB"/>
<path d="M120.499 273.438L112.213 265.152L118.536 259.745L125.906 267.115L120.499 273.438Z" fill="#EBEBEB"/>
<path d="M637.1 154.825C620.268 154.825 606.629 168.464 606.629 185.296C606.629 202.121 620.268 215.767 637.1 215.767C653.925 215.767 667.571 202.121 667.571 185.296C667.571 168.464 653.925 154.825 637.1 154.825ZM637.1 199.523C629.239 199.523 622.866 193.157 622.866 185.296C622.866 177.435 629.239 171.062 637.1 171.062C644.961 171.062 651.334 177.435 651.334 185.296C651.334 193.157 644.961 199.523 637.1 199.523Z" fill="#EBEBEB"/>
<path d="M642.958 156.088H631.24L631.888 147.793H642.31L642.958 156.088Z" fill="#EBEBEB"/>
<path d="M620.655 160.036L612.369 168.322L606.962 161.999L614.331 154.629L620.655 160.036Z" fill="#EBEBEB"/>
<path d="M607.675 178.599V190.317L599.381 189.669V179.247L607.675 178.599Z" fill="#EBEBEB"/>
<path d="M611.623 200.903L619.909 209.188L613.586 214.596L606.216 207.226L611.623 200.903Z" fill="#EBEBEB"/>
<path d="M630.186 213.882H641.904L641.256 222.177H630.834L630.186 213.882Z" fill="#EBEBEB"/>
<path d="M652.49 209.934L660.776 201.648L666.183 207.971L658.813 215.341L652.49 209.934Z" fill="#EBEBEB"/>
<path d="M665.469 191.371V179.653L673.764 180.301V190.723L665.469 191.371Z" fill="#EBEBEB"/>
<path d="M661.521 169.068L653.235 160.782L659.559 155.374L666.928 162.744L661.521 169.068Z" fill="#EBEBEB"/>
<path d="M56.759 395.818L136.32 395.575L215.88 395.487L375 395.319L534.12 395.486L613.68 395.574L693.241 395.818L613.68 396.063L534.12 396.151L375 396.317L215.88 396.15L136.32 396.061L56.759 395.818Z" fill="#263238"/>
<path d="M595.723 96.148H154.277V391.443H595.723V96.148Z" fill="#DBDBDB"/>
<path d="M592.514 99.75H157.485V387.841H592.514V99.75Z" fill="#263238"/>
<path d="M653.219 413.586H96.781V433.853H653.219V413.586Z" fill="#C7C7C7"/>
<path d="M96.781 413.586L154.277 391.443H595.723L653.219 413.586H96.781Z" fill="#DBDBDB"/>
<path d="M159.411 405.732L196.514 391.443H553.485L590.589 405.732H159.411Z" fill="#263238"/>
<path d="M568.256 121.534H181.743V366.056H568.256V121.534Z" fill="white"/>
<path d="M568.256 121.534H181.743V130.943H568.256V121.534Z" fill="#455A64"/>
<path d="M189.222 126.239C189.222 127.528 188.177 128.573 186.889 128.573C185.6 128.573 184.555 127.528 184.555 126.239C184.555 124.95 185.6 123.905 186.889 123.905C188.178 123.905 189.222 124.95 189.222 126.239Z" fill="#FFC727"/>
<path d="M198.751 126.239C198.751 127.528 197.706 128.573 196.417 128.573C195.128 128.573 194.084 127.528 194.084 126.239C194.084 124.95 195.129 123.905 196.417 123.905C197.706 123.905 198.751 124.95 198.751 126.239Z" fill="#EBEBEB"/>
<path d="M208.28 126.239C208.28 127.528 207.235 128.573 205.946 128.573C204.657 128.573 203.613 127.528 203.613 126.239C203.613 124.95 204.658 123.905 205.946 123.905C207.235 123.905 208.28 124.95 208.28 126.239Z" fill="white"/>
<path d="M366.569 290.221H436.992V236.189H366.569V290.221Z" fill="#FFC727"/>
<path opacity="0.6" d="M373.578 248.005C372.724 252.509 376.599 256.383 381.103 255.53C383.619 255.053 385.648 253.024 386.125 250.508C386.978 246.005 383.104 242.13 378.6 242.984C376.084 243.46 374.055 245.489 373.578 248.005Z" fill="white"/>
<path d="M389.801 278.579H436.992L413.396 249.499L389.801 278.579Z" fill="#FFC727"/>
<path opacity="0.2" d="M389.801 278.579H436.992L413.396 249.499L389.801 278.579Z" fill="black"/>
<path d="M366.568 278.605H408.417L387.493 259.669L366.568 278.605Z" fill="#FFC727"/>
<path opacity="0.1" d="M366.568 278.605H408.417L387.493 259.669L366.568 278.605Z" fill="black"/>
<path d="M436.991 278.579H366.568V290.22H436.991V278.579Z" fill="#FFC727"/>
<path opacity="0.1" d="M436.991 278.579H366.568V290.22H436.991V278.579Z" fill="black"/>
<path d="M253.725 236.188H200.828V240.639H253.725V236.188Z" fill="#DBDBDB"/>
<path d="M353.91 246.514H200.828V250.965H353.91V246.514Z" fill="#DBDBDB"/>
<path d="M353.91 256.306H200.828V260.757H353.91V256.306Z" fill="#DBDBDB"/>
<path d="M353.91 266.097H200.828V270.548H353.91V266.097Z" fill="#DBDBDB"/>
<path d="M353.91 275.889H200.828V280.34H353.91V275.889Z" fill="#DBDBDB"/>
<path d="M353.91 285.68H200.828V290.131H353.91V285.68Z" fill="#DBDBDB"/>
<path d="M381.214 148.823H328.316V160.729H381.214V148.823Z" fill="#DBDBDB"/>
<path d="M436.992 168.94H328.316V173.391H436.992V168.94Z" fill="#DBDBDB"/>
<path d="M436.992 178.732H328.316V183.183H436.992V178.732Z" fill="#DBDBDB"/>
<path d="M436.992 188.523H328.316V192.974H436.992V188.523Z" fill="#DBDBDB"/>
<path d="M436.992 198.315H328.316V202.766H436.992V198.315Z" fill="#DBDBDB"/>
<path d="M436.992 211.339H328.316V215.79H436.992V211.339Z" fill="#DBDBDB"/>
<path d="M436.992 221.131H328.316V225.582H436.992V221.131Z" fill="#DBDBDB"/>
<path d="M549.153 148.823H452.42V160.943H549.153V148.823Z" fill="#FFC727"/>
<path d="M548.905 160.944H452.688V290.007H548.905V160.944Z" fill="white"/>
<path d="M549.172 290.22H452.42V160.73H549.172V290.22ZM452.955 289.793H548.637V161.157H452.955V289.793Z" fill="#DBDBDB"/>
<path d="M452.936 290.086L452.439 289.927L548.655 160.865L549.153 161.023L452.936 290.086Z" fill="#DBDBDB"/>
<path d="M548.655 290.086L452.439 161.023L452.936 160.865L549.153 289.927L548.655 290.086Z" fill="#DBDBDB"/>
<path d="M316.317 149.034H201.033V225.371H316.317V149.034Z" fill="white"/>
<path d="M200.85 225.581V225.388L200.828 148.857H201.022L316.5 148.823L316.523 225.547H316.33L200.85 225.581ZM201.215 149.245L201.237 225.195L316.135 225.161L316.112 149.212L201.215 149.245Z" fill="#DBDBDB"/>
<path d="M201.215 149.245C210.913 155.387 220.547 161.627 230.171 167.882L258.97 186.757L287.632 205.839L301.915 215.453L316.135 225.161L301.625 215.891L287.178 206.526L258.38 187.65L229.719 168.567C220.19 162.168 210.67 155.755 201.215 149.245Z" fill="#DBDBDB"/>
<path d="M316.135 149.245C306.68 155.755 297.16 162.168 287.631 168.566L258.97 187.649L230.172 206.525L215.725 215.89L201.215 225.16L215.435 215.452L229.718 205.838L258.38 186.756L287.179 167.881C296.803 161.627 306.437 155.387 316.135 149.245Z" fill="#DBDBDB"/>
<path d="M627.485 60.548H533.846V120.28H627.485V60.548Z" fill="white"/>
<path d="M628.077 120.872H533.254V59.956H628.077V120.872ZM534.438 119.688H626.894V61.139H534.438V119.688Z" fill="#EBEBEB"/>
<path d="M627.485 60.548H533.846V71.844H627.485V60.548Z" fill="#455A64"/>
<path d="M544.45 66.278C544.45 67.848 543.177 69.121 541.607 69.121C540.037 69.121 538.764 67.848 538.764 66.278C538.764 64.708 540.037 63.435 541.607 63.435C543.177 63.435 544.45 64.708 544.45 66.278Z" fill="#FFC727"/>
<path d="M556.059 66.278C556.059 67.848 554.786 69.121 553.216 69.121C551.646 69.121 550.373 67.848 550.373 66.278C550.373 64.708 551.646 63.435 553.216 63.435C554.786 63.435 556.059 64.708 556.059 66.278Z" fill="#EBEBEB"/>
<path d="M567.668 66.278C567.668 67.848 566.395 69.121 564.825 69.121C563.255 69.121 561.982 67.848 561.982 66.278C561.982 64.708 563.255 63.435 564.825 63.435C566.396 63.435 567.668 64.708 567.668 66.278Z" fill="white"/>
<path d="M550.007 94.179C550.038 87.95 555.262 82.884 561.553 82.853C564.322 82.853 566.839 83.766 568.821 85.307C569.576 85.936 569.702 87.037 569.135 87.824C568.506 88.61 567.342 88.737 566.619 88.17C565.234 87.037 563.504 86.44 561.553 86.44C559.382 86.44 557.369 87.321 555.89 88.705C554.474 90.152 553.593 92.04 553.593 94.179C553.593 96.318 554.474 98.269 555.89 99.654C557.368 101.038 559.382 101.919 561.553 101.919C563.504 101.919 565.203 101.321 566.619 100.189C567.343 99.654 568.507 99.78 569.135 100.535C569.701 101.321 569.575 102.454 568.821 103.052C566.839 104.593 564.322 105.506 561.553 105.506C555.262 105.506 550.039 100.44 550.007 94.179Z" fill="#263238"/>
<path d="M574.547 100.031C575.113 99.339 576.151 99.245 576.844 99.811C578.228 100.944 580.619 102.265 582.852 102.233C584.425 102.233 585.841 101.761 586.785 101.069C587.728 100.377 588.138 99.591 588.138 98.804C588.138 98.395 588.044 98.112 587.855 97.797C587.667 97.482 587.383 97.168 586.912 96.853C585.999 96.255 584.458 95.72 582.602 95.374H582.539C581.061 95.091 579.676 94.713 578.481 94.147C577.286 93.581 576.247 92.794 575.555 91.693C575.082 90.938 574.831 90.057 574.831 89.113C574.831 87.225 575.9 85.589 577.347 84.52C578.826 83.45 580.745 82.853 582.79 82.853C585.81 82.853 588.044 84.332 589.649 85.37C590.372 85.873 590.592 86.88 590.089 87.604C589.616 88.359 588.61 88.58 587.855 88.076C586.251 87.006 584.709 86.062 582.79 86.062C581.374 86.062 580.115 86.502 579.266 87.131C578.418 87.76 578.071 88.453 578.071 89.113C578.071 89.491 578.135 89.742 578.292 89.994C578.449 90.246 578.733 90.529 579.142 90.812C579.959 91.378 581.375 91.882 583.074 92.196H583.137C584.742 92.51 586.221 92.92 587.48 93.517C588.77 94.146 589.902 94.964 590.625 96.129C591.098 96.884 591.381 97.827 591.381 98.803C591.381 100.817 590.248 102.547 588.675 103.68C587.133 104.812 585.088 105.473 582.854 105.473C579.457 105.441 576.594 103.743 574.8 102.327C574.106 101.762 574.011 100.724 574.547 100.031Z" fill="#263238"/>
<path d="M595.216 100.031C595.782 99.339 596.82 99.245 597.513 99.811C598.897 100.944 601.288 102.265 603.521 102.233C605.094 102.233 606.51 101.761 607.454 101.069C608.397 100.377 608.806 99.591 608.806 98.804C608.806 98.395 608.712 98.112 608.523 97.797C608.335 97.482 608.051 97.168 607.58 96.853C606.667 96.255 605.126 95.72 603.27 95.374H603.206C601.728 95.091 600.343 94.713 599.148 94.147C597.953 93.581 596.914 92.794 596.222 91.693C595.749 90.938 595.498 90.057 595.498 89.113C595.498 87.225 596.567 85.589 598.014 84.52C599.492 83.45 601.412 82.853 603.457 82.853C606.477 82.853 608.712 84.332 610.316 85.37C611.039 85.873 611.259 86.88 610.756 87.604C610.283 88.359 609.276 88.58 608.522 88.076C606.918 87.006 605.376 86.062 603.457 86.062C602.041 86.062 600.782 86.502 599.933 87.131C599.084 87.76 598.738 88.453 598.738 89.113C598.738 89.491 598.802 89.742 598.959 89.994C599.116 90.246 599.399 90.529 599.809 90.812C600.626 91.378 602.042 91.882 603.741 92.196H603.804C605.409 92.51 606.888 92.92 608.147 93.517C609.437 94.146 610.569 94.964 611.292 96.129C611.765 96.884 612.048 97.827 612.048 98.803C612.048 100.817 610.915 102.547 609.342 103.68C607.8 104.812 605.755 105.473 603.521 105.473C600.124 105.441 597.261 103.743 595.467 102.327C594.776 101.762 594.681 100.724 595.216 100.031Z" fill="#263238"/>
<path d="M642.221 142.82H589.652V166.437H642.221V142.82Z" fill="#455A64"/>
<path d="M605.292 155.677H603.11V159.529C603.11 160.062 602.666 160.506 602.116 160.506C601.582 160.506 601.138 160.062 601.138 159.529V149.054C601.138 148.504 601.582 148.078 602.116 148.078H602.135H605.293C607.406 148.078 609.112 149.782 609.112 151.895C609.111 153.972 607.405 155.677 605.292 155.677ZM603.109 153.706H605.291C606.322 153.706 607.12 152.889 607.138 151.895C607.12 150.866 606.322 150.049 605.291 150.049H603.109V153.706Z" fill="white"/>
<path d="M611.49 159.529V149.054C611.49 148.504 611.915 148.078 612.466 148.078C613.016 148.078 613.46 148.504 613.46 149.054V153.315H618.058V149.054C618.058 148.504 618.486 148.078 619.036 148.078C619.586 148.078 620.03 148.504 620.03 149.054V159.529C620.03 160.08 619.586 160.506 619.036 160.506C618.486 160.506 618.058 160.08 618.058 159.529V155.268H613.46V159.529C613.46 160.08 613.016 160.506 612.466 160.506C611.915 160.506 611.49 160.08 611.49 159.529Z" fill="white"/>
<path d="M628.231 155.677H626.046V159.529C626.046 160.062 625.602 160.506 625.052 160.506C624.52 160.506 624.076 160.062 624.076 159.529V149.054C624.076 148.504 624.52 148.078 625.052 148.078H625.071H628.231C630.344 148.078 632.048 149.782 632.048 151.895C632.048 153.972 630.344 155.677 628.231 155.677ZM626.047 153.706H628.232C629.261 153.706 630.061 152.889 630.079 151.895C630.061 150.866 629.261 150.049 628.232 150.049H626.047V153.706Z" fill="white"/>
<g opacity="0.8">
<path d="M554.637 247.834H398.474V357.239H554.637V247.834Z" fill="white"/>
<path d="M555.229 357.83H397.882V247.242H555.228L555.229 357.83ZM399.066 356.646H554.045V248.426H399.066V356.646Z" fill="#EBEBEB"/>
<path d="M554.637 247.834H398.474V259.13H554.637V247.834Z" fill="#455A64"/>
<path d="M555.229 259.721H397.882V247.242H555.228L555.229 259.721ZM399.066 258.538H554.045V248.426H399.066V258.538Z" fill="#EBEBEB"/>
<path d="M409.078 253.564C409.078 255.134 407.805 256.407 406.235 256.407C404.665 256.407 403.392 255.134 403.392 253.564C403.392 251.994 404.665 250.721 406.235 250.721C407.805 250.721 409.078 251.993 409.078 253.564Z" fill="#FFC727"/>
<path d="M420.687 253.564C420.687 255.134 419.414 256.407 417.844 256.407C416.274 256.407 415.001 255.134 415.001 253.564C415.001 251.994 416.274 250.721 417.844 250.721C419.414 250.721 420.687 251.993 420.687 253.564Z" fill="#EBEBEB"/>
<path d="M432.296 253.564C432.296 255.134 431.023 256.407 429.453 256.407C427.883 256.407 426.61 255.134 426.61 253.564C426.61 251.994 427.883 250.721 429.453 250.721C431.023 250.721 432.296 251.993 432.296 253.564Z" fill="white"/>
<path d="M416.631 281.602H410.592V283.808H416.631V281.602Z" fill="#EBEBEB"/>
<path d="M490.31 281.602H421.033V283.808H490.31V281.602Z" fill="#EBEBEB"/>
<path d="M505.493 281.602H494.021V283.808H505.493V281.602Z" fill="#FFC727"/>
<path d="M527.817 281.602H507.986V283.808H527.817V281.602Z" fill="#A6A6A6"/>
<path d="M422.671 287.505H416.632V289.711H422.671V287.505Z" fill="#EBEBEB"/>
<path d="M472.385 287.505H426.921V289.711H472.385V287.505Z" fill="#A6A6A6"/>
<path d="M464.458 305.218H421.033V307.424H464.458V305.218Z" fill="#A6A6A6"/>
<path d="M457.385 293.41H426.921V295.616H457.385V293.41Z" fill="#FFC727"/>
<path d="M513.312 299.314H501.692V301.52H513.312V299.314Z" fill="#A6A6A6"/>
<path d="M509.414 293.41H460.765V295.616H509.414V293.41Z" fill="#A6A6A6"/>
<path d="M479.104 311.122H421.033V313.328H479.104V311.122Z" fill="#FFC727"/>
<path d="M538.178 287.505H506.707V289.711H538.178V287.505Z" fill="#FFC727"/>
<path d="M504.213 287.505H475.239V289.711H504.213V287.505Z" fill="#EBEBEB"/>
<path d="M531.253 293.41H511.701V295.616H531.253V293.41Z" fill="#EBEBEB"/>
<path d="M422.671 293.41H416.632V295.616H422.671V293.41Z" fill="#EBEBEB"/>
<path d="M416.631 299.314H410.592V301.52H416.631V299.314Z" fill="#A6A6A6"/>
<path d="M456.726 299.314H421.033V301.52H456.726V299.314Z" fill="#EBEBEB"/>
<path d="M505.492 305.218H466.915V307.424H505.492V305.218Z" fill="#EBEBEB"/>
<path d="M532.532 305.218H507.986V307.424H532.532V305.218Z" fill="#FFC727"/>
<path d="M498.885 299.314H460.354V301.52H498.885V299.314Z" fill="#FFC727"/>
<path d="M416.631 305.218H410.592V307.424H416.631V305.218Z" fill="#EBEBEB"/>
<path d="M416.631 311.122H410.592V313.328H416.631V311.122Z" fill="#EBEBEB"/>
<path d="M414.323 275.792C414.531 276.008 414.531 276.331 414.323 276.538C414.215 276.637 414.092 276.687 413.959 276.687C413.818 276.687 413.685 276.637 413.578 276.538L411.249 274.175C411.224 274.167 411.215 274.15 411.207 274.125C411.199 274.116 411.182 274.108 411.182 274.108C411.166 274.083 411.166 274.066 411.157 274.042C411.14 274.034 411.132 274.017 411.132 274.009C411.124 273.992 411.124 273.967 411.116 273.959C411.116 273.934 411.099 273.926 411.099 273.918C411.099 273.893 411.099 273.876 411.099 273.86C411.099 273.843 411.091 273.835 411.091 273.811C411.091 273.802 411.099 273.777 411.099 273.769C411.099 273.752 411.099 273.727 411.099 273.711C411.099 273.694 411.116 273.686 411.116 273.677C411.124 273.652 411.124 273.636 411.132 273.611C411.132 273.603 411.14 273.603 411.14 273.595C411.157 273.57 411.165 273.537 411.182 273.521C411.182 273.521 411.182 273.504 411.199 273.504C411.207 273.487 411.223 273.462 411.249 273.446L413.578 271.084C413.785 270.885 414.125 270.885 414.324 271.084C414.532 271.291 414.532 271.623 414.324 271.83L412.36 273.811L414.323 275.792Z" fill="#FFC727"/>
<path d="M416.434 276.057L418.465 271.224C418.564 270.992 418.829 270.884 419.069 270.984C419.293 271.075 419.401 271.349 419.301 271.572L417.27 276.413C417.195 276.587 417.021 276.686 416.847 276.686C416.797 276.686 416.731 276.678 416.682 276.653C416.442 276.563 416.335 276.289 416.434 276.057Z" fill="#FFC727"/>
<path d="M423.313 274.109C423.313 274.109 423.313 274.117 423.305 274.117C423.288 274.134 423.271 274.159 423.246 274.175L420.917 276.538C420.818 276.637 420.677 276.687 420.544 276.687C420.403 276.687 420.279 276.637 420.172 276.538C419.964 276.331 419.964 276.007 420.172 275.792L422.136 273.811L420.172 271.83C419.964 271.622 419.964 271.291 420.172 271.084C420.371 270.885 420.711 270.885 420.917 271.084L423.246 273.446C423.272 273.462 423.288 273.487 423.305 273.504C423.313 273.504 423.313 273.521 423.313 273.521C423.329 273.554 423.345 273.571 423.355 273.595C423.355 273.603 423.363 273.603 423.363 273.611C423.371 273.636 423.371 273.653 423.387 273.686C423.387 273.694 423.395 273.694 423.395 273.711C423.395 273.727 423.395 273.752 423.395 273.769C423.395 273.777 423.404 273.802 423.404 273.811C423.404 273.819 423.395 273.844 423.395 273.852C423.395 273.877 423.395 273.894 423.395 273.918C423.395 273.927 423.387 273.927 423.387 273.935C423.371 273.968 423.371 273.993 423.363 274.009C423.363 274.017 423.355 274.017 423.355 274.034C423.345 274.051 423.329 274.076 423.313 274.109Z" fill="#FFC727"/>
</g>
<path d="M212.176 252.231H148.385V275.848H212.176V252.231Z" fill="#FFC727"/>
<path d="M157.59 268.939V258.464C157.59 257.914 158.017 257.488 158.567 257.488C159.117 257.488 159.561 257.914 159.561 258.464V262.725H164.159V258.464C164.159 257.914 164.586 257.488 165.136 257.488C165.686 257.488 166.13 257.914 166.13 258.464V268.939C166.13 269.49 165.686 269.916 165.136 269.916C164.586 269.916 164.159 269.49 164.159 268.939V264.678H159.561V268.939C159.561 269.49 159.117 269.916 158.567 269.916C158.016 269.916 157.59 269.49 157.59 268.939Z" fill="white"/>
<path d="M177.776 259.459H174.953V268.939C174.953 269.49 174.527 269.916 173.976 269.916C173.443 269.916 173.001 269.49 173.001 268.939V259.459H170.196C169.646 259.459 169.219 258.997 169.219 258.464C169.219 257.914 169.645 257.488 170.196 257.488H177.776C178.309 257.488 178.753 257.914 178.753 258.464C178.753 258.997 178.309 259.459 177.776 259.459Z" fill="white"/>
<path d="M192.37 258.465V268.94C192.37 269.473 191.908 269.917 191.376 269.917C190.825 269.917 190.399 269.473 190.399 268.94V261.466L187.842 265.017C187.647 265.283 187.362 265.425 187.043 265.425H187.026H187.008C186.689 265.425 186.387 265.283 186.192 265.017L183.652 261.466V268.94C183.652 269.473 183.208 269.917 182.658 269.917C182.125 269.917 181.681 269.473 181.681 268.94V258.465C181.681 257.933 182.125 257.489 182.658 257.489C182.676 257.489 182.676 257.489 182.711 257.489C182.995 257.489 183.314 257.631 183.492 257.897L187.025 262.797L190.557 257.897C190.752 257.631 191.037 257.489 191.356 257.489C191.356 257.489 191.356 257.489 191.375 257.489C191.908 257.506 192.37 257.932 192.37 258.465Z" fill="white"/>
<path d="M196.667 268.939V258.464C196.667 257.932 197.093 257.488 197.643 257.488C198.193 257.488 198.637 257.932 198.637 258.464V267.944H203.449C203.963 267.944 204.424 268.388 204.424 268.938C204.424 269.471 203.963 269.915 203.449 269.915H197.696C197.661 269.915 197.661 269.915 197.661 269.915C197.642 269.915 197.642 269.915 197.642 269.915C197.093 269.916 196.667 269.472 196.667 268.939Z" fill="white"/>
<path d="M174.638 84.345H80.999V144.077H174.638V84.345Z" fill="white"/>
<path d="M175.229 144.669H80.407V83.753H175.229V144.669ZM81.591 143.485H174.045V84.937H81.591V143.485Z" fill="#EBEBEB"/>
<path d="M174.638 84.345H80.999V95.641H174.638V84.345Z" fill="#455A64"/>
<path d="M175.229 96.233H80.407V83.753H175.229V96.233ZM81.591 95.049H174.045V84.937H81.591V95.049Z" fill="#EBEBEB"/>
<path d="M91.603 90.075C91.603 91.645 90.33 92.918 88.76 92.918C87.19 92.918 85.917 91.645 85.917 90.075C85.917 88.505 87.19 87.232 88.76 87.232C90.33 87.232 91.603 88.505 91.603 90.075Z" fill="#FFC727"/>
<path d="M103.212 90.075C103.212 91.645 101.939 92.918 100.369 92.918C98.799 92.918 97.526 91.645 97.526 90.075C97.526 88.505 98.799 87.232 100.369 87.232C101.939 87.232 103.212 88.505 103.212 90.075Z" fill="#EBEBEB"/>
<path d="M114.821 90.075C114.821 91.645 113.548 92.918 111.978 92.918C110.408 92.918 109.135 91.645 109.135 90.075C109.135 88.505 110.408 87.232 111.978 87.232C113.548 87.232 114.821 88.505 114.821 90.075Z" fill="white"/>
<path d="M98.4819 117.976C98.5129 111.747 103.736 106.681 110.028 106.65C112.796 106.65 115.314 107.562 117.296 109.104C118.051 109.734 118.177 110.834 117.61 111.621C116.98 112.408 115.816 112.534 115.092 111.967C113.709 110.834 111.978 110.237 110.027 110.237C107.856 110.237 105.843 111.118 104.364 112.502C102.948 113.949 102.067 115.837 102.067 117.976C102.067 120.116 102.948 122.066 104.364 123.451C105.842 124.835 107.856 125.716 110.027 125.716C111.978 125.716 113.676 125.118 115.092 123.986C115.816 123.451 116.98 123.577 117.61 124.332C118.176 125.118 118.05 126.251 117.296 126.849C115.314 128.391 112.796 129.303 110.028 129.303C103.735 129.303 98.5129 124.238 98.4819 117.976Z" fill="#263238"/>
<path d="M128.651 119.959H124.184C123.241 119.959 122.454 119.204 122.454 118.229C122.454 117.285 123.241 116.499 124.184 116.499H128.651V112.126C128.651 111.119 129.438 110.333 130.445 110.333C131.42 110.333 132.238 111.12 132.238 112.126V116.499H136.706C137.65 116.499 138.436 117.286 138.436 118.229C138.436 119.205 137.65 119.959 136.706 119.959H132.238V124.332C132.238 125.339 131.421 126.125 130.445 126.125C129.438 126.125 128.651 125.339 128.651 124.332V119.959Z" fill="#263238"/>
<path d="M148.157 119.959H143.69C142.746 119.959 141.96 119.204 141.96 118.229C141.96 117.285 142.746 116.499 143.69 116.499H148.157V112.126C148.157 111.119 148.943 110.333 149.95 110.333C150.926 110.333 151.744 111.12 151.744 112.126V116.499H156.211C157.154 116.499 157.941 117.286 157.941 118.229C157.941 119.205 157.154 119.959 156.211 119.959H151.744V124.332C151.744 125.339 150.926 126.125 149.95 126.125C148.943 126.125 148.157 125.339 148.157 124.332V119.959Z" fill="#263238"/>
<path d="M142.463 192.544L127.12 208.812L128.706 210.307L144.048 194.039L142.463 192.544Z" fill="#263238"/>
<path d="M143.631 209.138H127.919V211.317H143.631V209.138Z" fill="#455A64"/>
<path d="M143.631 192.184H127.919V194.363H143.631V192.184Z" fill="#455A64"/>
<path d="M128.713 192.527L127.127 194.022L142.466 210.295L144.051 208.8L128.713 192.527Z" fill="#455A64"/>
<path d="M142.464 209.49L127.121 225.758L128.706 227.253L144.049 210.985L142.464 209.49Z" fill="#263238"/>
<path d="M143.631 226.092H127.919V228.271H143.631V226.092Z" fill="#455A64"/>
<path d="M143.631 209.138H127.919V211.317H143.631V209.138Z" fill="#455A64"/>
<path d="M128.713 209.48L127.127 210.974L142.465 227.247L144.051 225.753L128.713 209.48Z" fill="#455A64"/>
<path d="M142.461 226.453L127.119 242.721L128.704 244.216L144.047 227.948L142.461 226.453Z" fill="#263238"/>
<path d="M143.631 243.045H127.919V245.224H143.631V243.045Z" fill="#455A64"/>
<path d="M143.631 226.092H127.919V228.271H143.631V226.092Z" fill="#455A64"/>
<path d="M128.712 226.435L127.127 227.929L142.465 244.202L144.051 242.707L128.712 226.435Z" fill="#455A64"/>
<path d="M142.463 243.398L127.121 259.667L128.706 261.162L144.048 244.893L142.463 243.398Z" fill="#263238"/>
<path d="M143.631 259.999H127.919V262.178H143.631V259.999Z" fill="#455A64"/>
<path d="M143.631 243.045H127.919V245.224H143.631V243.045Z" fill="#455A64"/>
<path d="M128.713 243.388L127.127 244.882L142.465 261.155L144.051 259.661L128.713 243.388Z" fill="#455A64"/>
<path d="M142.46 260.362L127.117 276.631L128.703 278.126L144.045 261.857L142.46 260.362Z" fill="#263238"/>
<path d="M143.631 276.953H127.919V279.132H143.631V276.953Z" fill="#455A64"/>
<path d="M143.631 259.999H127.919V262.178H143.631V259.999Z" fill="#455A64"/>
<path d="M128.713 260.342L127.127 261.836L142.465 278.109L144.051 276.615L128.713 260.342Z" fill="#455A64"/>
<path d="M142.459 277.317L127.117 293.585L128.702 295.08L144.045 278.812L142.459 277.317Z" fill="#263238"/>
<path d="M143.631 293.907H127.919V296.086H143.631V293.907Z" fill="#455A64"/>
<path d="M143.631 276.953H127.919V279.132H143.631V276.953Z" fill="#455A64"/>
<path d="M128.713 277.297L127.127 278.791L142.465 295.064L144.051 293.57L128.713 277.297Z" fill="#455A64"/>
<path d="M142.458 294.271L127.115 310.54L128.7 312.035L144.043 295.766L142.458 294.271Z" fill="#263238"/>
<path d="M143.631 310.861H127.919V313.04H143.631V310.861Z" fill="#455A64"/>
<path d="M143.631 293.907H127.919V296.086H143.631V293.907Z" fill="#455A64"/>
<path d="M128.713 294.25L127.127 295.745L142.466 312.017L144.051 310.523L128.713 294.25Z" fill="#455A64"/>
<path d="M142.461 311.215L127.119 327.483L128.704 328.978L144.046 312.71L142.461 311.215Z" fill="#263238"/>
<path d="M143.631 327.815H127.919V329.994H143.631V327.815Z" fill="#455A64"/>
<path d="M143.631 310.861H127.919V313.04H143.631V310.861Z" fill="#455A64"/>
<path d="M128.713 311.203L127.127 312.698L142.465 328.971L144.051 327.476L128.713 311.203Z" fill="#455A64"/>
<path d="M142.465 328.158L127.123 344.426L128.708 345.921L144.05 329.653L142.465 328.158Z" fill="#263238"/>
<path d="M143.631 344.768H127.919V346.947H143.631V344.768Z" fill="#455A64"/>
<path d="M143.631 327.815H127.919V329.994H143.631V327.815Z" fill="#455A64"/>
<path d="M128.713 328.156L127.128 329.651L142.466 345.924L144.051 344.429L128.713 328.156Z" fill="#455A64"/>
<path d="M142.469 345.102L127.134 361.377L128.719 362.871L144.055 346.596L142.469 345.102Z" fill="#263238"/>
<path d="M143.631 361.722H127.919V363.901H143.631V361.722Z" fill="#455A64"/>
<path d="M143.631 344.768H127.919V346.947H143.631V344.768Z" fill="#455A64"/>
<path d="M128.709 345.118L127.124 346.612L142.462 362.885L144.047 361.391L128.709 345.118Z" fill="#455A64"/>
<path d="M142.47 362.056L127.134 378.331L128.719 379.825L144.055 363.55L142.47 362.056Z" fill="#263238"/>
<path d="M143.631 378.676H127.919V380.855H143.631V378.676Z" fill="#455A64"/>
<path d="M143.631 361.722H127.919V363.901H143.631V361.722Z" fill="#455A64"/>
<path d="M128.712 362.066L127.127 363.56L142.465 379.833L144.05 378.339L128.712 362.066Z" fill="#455A64"/>
<path d="M146.779 388.32V378.449H124.114V388.32H146.779Z" fill="#455A64"/>
<path d="M129.795 379.068L129.795 193.071H124.115L124.115 379.068H129.795Z" fill="#455A64"/>
<path d="M146.78 379.068L146.78 193.071H141.1L141.1 379.068H146.78Z" fill="#455A64"/>
<path d="M296.07 191.741L279.092 175.014L135.801 148.31L92.252 175.137L91.109 173.282L135.374 146.014L280.146 172.993L297.599 190.189L296.07 191.741Z" fill="#455A64"/>
<path d="M153.08 177.359L135.626 153.102L118.922 177.323L115.335 174.85L135.55 145.536L156.618 174.814L153.08 177.359Z" fill="#263238"/>
<path d="M263.107 176.937L261.613 178.523L277.886 193.861L279.38 192.275L263.107 176.937Z" fill="#263238"/>
<path d="M280.403 177.359H278.224V193.071H280.403V177.359Z" fill="#455A64"/>
<path d="M263.449 177.359H261.27V193.071H263.449V177.359Z" fill="#455A64"/>
<path d="M277.886 176.954L261.615 192.294L263.11 193.88L279.381 178.539L277.886 176.954Z" fill="#455A64"/>
<path d="M246.154 176.937L244.659 178.523L260.932 193.861L262.426 192.275L246.154 176.937Z" fill="#263238"/>
<path d="M263.449 177.359H261.27V193.071H263.449V177.359Z" fill="#455A64"/>
<path d="M246.495 177.359H244.316V193.071H246.495V177.359Z" fill="#455A64"/>
<path d="M260.931 176.954L244.661 192.294L246.156 193.88L262.426 178.54L260.931 176.954Z" fill="#455A64"/>
<path d="M229.2 176.939L227.705 178.524L243.978 193.862L245.472 192.277L229.2 176.939Z" fill="#263238"/>
<path d="M246.495 177.359H244.316V193.071H246.495V177.359Z" fill="#455A64"/>
<path d="M229.541 177.359H227.362V193.071H229.541V177.359Z" fill="#455A64"/>
<path d="M243.977 176.953L227.706 192.293L229.201 193.879L245.472 178.538L243.977 176.953Z" fill="#455A64"/>
<path d="M212.246 176.938L210.751 178.524L227.024 193.862L228.519 192.276L212.246 176.938Z" fill="#263238"/>
<path d="M229.541 177.359H227.362V193.071H229.541V177.359Z" fill="#455A64"/>
<path d="M212.587 177.359H210.408V193.071H212.587V177.359Z" fill="#455A64"/>
<path d="M227.023 176.953L210.752 192.293L212.247 193.878L228.517 178.538L227.023 176.953Z" fill="#455A64"/>
<path d="M195.292 176.939L193.797 178.525L210.07 193.863L211.565 192.277L195.292 176.939Z" fill="#263238"/>
<path d="M212.587 177.359H210.408V193.071H212.587V177.359Z" fill="#455A64"/>
<path d="M195.634 177.359H193.455V193.071H195.634V177.359Z" fill="#455A64"/>
<path d="M210.065 176.921L193.797 192.264L195.292 193.849L211.56 178.507L210.065 176.921Z" fill="#455A64"/>
<path d="M178.338 176.938L176.843 178.524L193.116 193.862L194.611 192.276L178.338 176.938Z" fill="#263238"/>
<path d="M195.634 177.359H193.455V193.071H195.634V177.359Z" fill="#455A64"/>
<path d="M178.68 177.359H176.501V193.071H178.68V177.359Z" fill="#455A64"/>
<path d="M193.114 176.951L176.844 192.291L178.338 193.877L194.609 178.536L193.114 176.951Z" fill="#455A64"/>
<path d="M161.385 176.939L159.89 178.524L176.163 193.862L177.658 192.277L161.385 176.939Z" fill="#263238"/>
<path d="M178.68 177.359H176.501V193.071H178.68V177.359Z" fill="#455A64"/>
<path d="M161.726 177.359H159.547V193.071H161.726V177.359Z" fill="#455A64"/>
<path d="M176.16 176.922L159.891 192.265L161.386 193.85L177.655 178.507L176.16 176.922Z" fill="#455A64"/>
<path d="M144.431 176.938L142.936 178.524L159.209 193.862L160.704 192.276L144.431 176.938Z" fill="#263238"/>
<path d="M161.726 177.359H159.547V193.071H161.726V177.359Z" fill="#455A64"/>
<path d="M144.772 177.359H142.593V193.071H144.772V177.359Z" fill="#455A64"/>
<path d="M159.205 176.95L142.935 192.29L144.429 193.876L160.7 178.536L159.205 176.95Z" fill="#455A64"/>
<path d="M127.477 176.938L125.982 178.524L142.255 193.862L143.75 192.276L127.477 176.938Z" fill="#263238"/>
<path d="M144.772 177.359H142.593V193.071H144.772V177.359Z" fill="#455A64"/>
<path d="M127.818 177.359H125.639V193.071H127.818V177.359Z" fill="#455A64"/>
<path d="M142.251 176.95L125.98 192.29L127.475 193.875L143.746 178.535L142.251 176.95Z" fill="#455A64"/>
<path d="M110.523 176.939L109.028 178.525L125.301 193.863L126.796 192.277L110.523 176.939Z" fill="#263238"/>
<path d="M127.818 177.359H125.639V193.071H127.818V177.359Z" fill="#455A64"/>
<path d="M110.864 177.359H108.685V193.071H110.864V177.359Z" fill="#455A64"/>
<path d="M125.296 176.949L109.026 192.29L110.521 193.875L126.791 178.535L125.296 176.949Z" fill="#455A64"/>
<path d="M93.569 176.939L92.0745 178.525L108.347 193.863L109.842 192.278L93.569 176.939Z" fill="#263238"/>
<path d="M110.864 177.359H108.685V193.071H110.864V177.359Z" fill="#455A64"/>
<path d="M93.9111 177.359H91.7321V193.071H93.9111V177.359Z" fill="#455A64"/>
<path d="M108.347 176.926L92.0786 192.268L93.5736 193.854L109.842 178.511L108.347 176.926Z" fill="#455A64"/>
<path d="M91.086 173.247H81.228V195.912H91.086V173.247Z" fill="#263238"/>
<path d="M100.957 173.247H91.0861V195.912H100.957V173.247Z" fill="#455A64"/>
<path d="M113.996 195.911H95.068V207.215H113.996V195.911Z" fill="#455A64"/>
<path d="M297.595 190.231H91.0861V195.911H297.595V190.231Z" fill="#455A64"/>
<path d="M285.816 178.926H91.0861V173.247H280.266L285.816 178.926Z" fill="#455A64"/>
<path d="M284.115 177.359H281.936V193.071H284.115V177.359Z" fill="#455A64"/>
<path d="M250.442 295.669C251.755 293.847 253.146 292.094 254.552 290.353C255.947 288.603 257.401 286.904 258.857 285.206L259.246 284.753L259.621 285.22C261.78 287.908 263.929 290.604 266.022 293.344L269.155 297.46C270.17 298.856 271.213 300.229 272.203 301.644C271.032 300.374 269.913 299.062 268.766 297.772L265.414 293.832C263.184 291.202 261.009 288.527 258.844 285.844L259.608 285.858C258.133 287.539 256.657 289.219 255.121 290.848C253.598 292.486 252.059 294.111 250.442 295.669Z" fill="#263238"/>
<path d="M250.89 198.227H248.711V266.304H250.89V198.227Z" fill="#263238"/>
<path d="M269.324 198.945H267.145V267.022H269.324V198.945Z" fill="#263238"/>
<path d="M273.534 195.911H244.801V200.542H273.534V195.911Z" fill="#455A64"/>
<path d="M260.257 271.716L260.016 276.55L259.319 275.715C260.149 275.929 260.827 276.235 261.515 276.66C262.186 277.08 262.81 277.641 263.24 278.357C264.132 279.798 264.002 281.651 263.125 282.952C262.272 284.278 260.723 285.018 259.236 284.965C257.712 284.918 256.427 283.96 255.628 282.813C256.544 283.883 257.872 284.641 259.234 284.541C260.569 284.454 261.825 283.657 262.398 282.515C262.996 281.406 262.904 279.985 262.182 279.063C261.489 278.127 260.179 277.576 259.018 277.384L258.357 277.275L258.321 276.55L258.08 271.716H260.257Z" fill="#263238"/>
<path d="M273.534 261.803V269.691L259.165 273.1L244.807 269.691V261.803H273.534Z" fill="#455A64"/>
<path d="M251.395 266.43C251.395 267.351 250.648 268.098 249.727 268.098C248.806 268.098 248.059 267.351 248.059 266.43C248.059 265.509 248.806 264.762 249.727 264.762C250.648 264.762 251.395 265.509 251.395 266.43Z" fill="#263238"/>
<path d="M270.277 266.43C270.277 267.351 269.53 268.098 268.609 268.098C267.688 268.098 266.941 267.351 266.941 266.43C266.941 265.509 267.688 264.762 268.609 264.762C269.531 264.762 270.277 265.509 270.277 266.43Z" fill="#263238"/>
<path d="M139.265 147.162C139.265 149.193 137.619 150.839 135.588 150.839C133.557 150.839 131.911 149.193 131.911 147.162C131.911 145.131 133.557 143.485 135.588 143.485C137.619 143.485 139.265 145.131 139.265 147.162Z" fill="#A6A6A6"/>
<path d="M137.305 147.162C137.305 148.11 136.536 148.879 135.588 148.879C134.64 148.879 133.871 148.11 133.871 147.162C133.871 146.214 134.64 145.445 135.588 145.445C136.536 145.445 137.305 146.214 137.305 147.162Z" fill="#455A64"/>
<path d="M151.312 388.32H119.583V395.819H151.312V388.32Z" fill="#263238"/>
<path d="M158.189 395.818H112.706V410.525H158.189V395.818Z" fill="#455A64"/>
<path d="M153.896 209.024H119.943V171.44H142.116C146.001 171.44 149.285 174.317 149.796 178.167L153.896 209.024Z" fill="#FFC727"/>
<path d="M144.658 197.603H128.742C128.557 197.603 128.393 197.581 128.23 197.527C127.489 197.309 126.955 196.612 126.955 195.806V175.728H138.274C138.655 175.728 139.037 175.761 139.407 175.837C140.279 175.989 141.085 176.316 141.782 176.785C142.283 177.123 142.73 177.526 143.1 177.983C143.852 178.876 144.364 179.977 144.527 181.208L146.433 195.566C146.575 196.644 145.736 197.603 144.658 197.603Z" fill="#263238"/>
<g opacity="0.4">
<path d="M142.947 187.123C142.947 187.58 142.773 188.038 142.424 188.387L133.208 197.603H128.741C128.556 197.603 128.392 197.581 128.229 197.527L139.897 185.859C140.594 185.162 141.727 185.162 142.424 185.859C142.773 186.208 142.947 186.665 142.947 187.123Z" fill="white"/>
<path d="M143.1 177.983L126.955 194.128V191.611L141.782 176.784C142.283 177.122 142.729 177.525 143.1 177.983Z" fill="white"/>
<path d="M139.407 175.837L130.234 185.01C129.711 185.533 128.861 185.533 128.338 185.01C128.077 184.748 127.946 184.411 127.946 184.062C127.946 183.724 128.077 183.387 128.338 183.125L135.735 175.728H138.273C138.655 175.728 139.036 175.76 139.407 175.837Z" fill="white"/>
</g>
<path d="M310.286 312.914L218.857 286.256L201.206 346.797L292.635 373.454L310.286 312.914Z" fill="white"/>
<path d="M201.023 346.914L201.068 346.761L218.763 286.064L218.917 286.109L310.503 312.809L292.764 373.659L292.611 373.614L201.023 346.914ZM218.98 286.461L201.419 346.697L292.545 373.262L310.105 313.026L218.98 286.461Z" fill="#DBDBDB"/>
<path d="M266.143 332.888C264.472 338.621 258.469 341.914 252.736 340.242C247.003 338.571 243.71 332.568 245.382 326.835C247.053 321.102 253.056 317.809 258.789 319.481C264.521 321.152 267.814 327.155 266.143 332.888Z" fill="#FFC727"/>
<path d="M250.104 332.973L252.663 324.197L262.356 331.784L250.104 332.973Z" fill="white"/>
<path d="M294.013 368.726L202.585 342.068L201.206 346.797L292.634 373.454L294.013 368.726Z" fill="#EBEBEB"/>
<path d="M284.595 367.784L207.64 345.347L207.231 346.749L284.186 369.186L284.595 367.784Z" fill="#C7C7C7"/>
<path d="M206.15 344.052L203.16 343.181L202.289 346.17L205.278 347.042L206.15 344.052Z" fill="#C7C7C7"/>
<path d="M204.271 344.084L203.704 343.919L203.143 345.843L203.71 346.008L204.271 344.084Z" fill="#A6A6A6"/>
<path d="M205.32 344.386L204.754 344.221L204.193 346.145L204.759 346.31L205.32 344.386Z" fill="#A6A6A6"/>
<path d="M289.037 368.219L286.047 367.347L285.176 370.337L288.165 371.208L289.037 368.219Z" fill="#C7C7C7"/>
<path d="M286.763 368.774L286.179 368.604L285.968 369.328L286.552 369.499L286.763 368.774Z" fill="#A6A6A6"/>
<path d="M287.079 370.169L286.331 369.445L286.542 368.72L287.562 368.512L287.079 370.169Z" fill="#A6A6A6"/>
<path d="M287.915 368.915C287.973 368.883 288.03 368.852 288.088 368.819C288.194 369.016 288.237 369.226 288.203 369.447C288.153 369.778 287.976 370.024 287.689 370.192C287.657 370.133 287.625 370.076 287.594 370.017C287.787 369.908 287.92 369.747 287.983 369.532C288.046 369.319 288.019 369.112 287.915 368.915Z" fill="#A6A6A6"/>
<path d="M287.499 369.844C287.468 369.787 287.436 369.729 287.404 369.671C287.502 369.615 287.571 369.533 287.603 369.423C287.635 369.313 287.621 369.207 287.568 369.106C287.626 369.074 287.683 369.043 287.741 369.011C287.902 369.289 287.808 369.678 287.499 369.844Z" fill="#A6A6A6"/>
<path d="M292.6 369.26L289.61 368.389L288.739 371.378L291.728 372.25L292.6 369.26Z" fill="#C7C7C7"/>
<path d="M291.18 369.371L289.945 369.01L289.585 370.246L290.82 370.606L291.18 369.371Z" fill="#A6A6A6"/>
<path d="M291.777 370.434L290.541 370.074L290.181 371.31L291.417 371.67L291.777 370.434Z" fill="white"/>
<path d="M221.868 350.262C221.794 350.514 221.78 350.77 221.824 351.009L207.247 346.759L207.657 345.352L222.24 349.603C222.075 349.782 221.942 350.01 221.868 350.262Z" fill="#A6A6A6"/>
<path d="M225.069 351.195C224.996 351.447 224.87 351.67 224.705 351.849C224.285 352.306 223.633 352.509 223 352.325C222.367 352.141 221.926 351.619 221.824 351.009C221.78 350.77 221.795 350.514 221.868 350.262C221.941 350.01 222.074 349.782 222.24 349.604C222.654 349.145 223.3 348.94 223.933 349.124C224.566 349.308 225.001 349.829 225.109 350.44C225.153 350.68 225.142 350.943 225.069 351.195Z" fill="#A6A6A6"/>
<path d="M474.758 415.02C475.385 413.247 507.87 372.133 510.045 371.373C510.294 371.272 524.217 381.624 524.217 381.624C524.784 382.414 551.765 377.296 551.765 377.296L551.358 409.708L502.445 407.649C502.445 407.649 495.755 411.397 489.643 414.437C489.633 414.438 489.628 414.444 489.622 414.44C485.861 416.324 482.533 417.907 481.588 418.133C479.128 418.708 474.119 416.783 474.758 415.02Z" fill="#EB9481"/>
<path d="M481.589 418.132C482.537 417.91 485.862 416.326 489.621 414.439C489.629 414.447 489.637 414.439 489.644 414.44C495.752 411.4 502.444 407.648 502.444 407.648L513.33 408.109L530.952 380.952C527.196 381.537 524.397 381.876 524.215 381.623C524.215 381.623 510.298 371.272 510.046 371.376C507.87 372.134 475.388 413.247 474.758 415.02C474.121 416.783 479.127 418.712 481.589 418.132Z" fill="white"/>
<path d="M474.468 415.069C475.128 413.252 507.754 372.165 509.989 371.384C510.835 371.084 517.659 375.498 524.218 381.623L503.152 408.087C503.152 408.087 484.024 417.715 481.482 418.308C478.945 418.894 473.809 416.886 474.468 415.069Z" fill="#FFC727"/>
<path d="M476.579 415.785C482.217 409.032 504.321 381.262 509.381 374.158C509.422 374.1 509.385 374.07 509.338 374.124C503.603 380.695 481.725 408.643 476.466 415.696C476.355 415.844 476.46 415.928 476.579 415.785Z" fill="#263238"/>
<path d="M485.058 416.84C486.421 415.26 486.913 413.047 486.648 411.384C486.393 409.786 485.66 408.01 484.193 406.925C484.151 406.894 484.09 406.969 484.127 407.008C486.51 409.542 486.93 413.873 484.971 416.771C484.932 416.83 485.011 416.894 485.058 416.84Z" fill="#263238"/>
<path d="M500.745 409.7C502.972 406.974 504.537 403.005 503.643 399.502C503.608 399.366 503.416 399.417 503.393 399.533C502.699 403.045 501.775 406.174 500.368 409.479C500.269 409.711 500.585 409.895 500.745 409.7Z" fill="#263238"/>
<path d="M498.225 411.169C500.452 408.443 502.017 404.474 501.123 400.97C501.088 400.834 500.896 400.886 500.873 401.001C500.179 404.513 499.255 407.642 497.848 410.946C497.749 411.18 498.066 411.364 498.225 411.169Z" fill="#263238"/>
<path d="M495.706 412.638C497.933 409.912 499.498 405.943 498.604 402.44C498.57 402.304 498.377 402.356 498.354 402.471C497.66 405.983 496.736 409.112 495.329 412.417C495.23 412.649 495.546 412.834 495.706 412.638Z" fill="#263238"/>
<path d="M493.186 414.108C495.413 411.382 496.978 407.413 496.084 403.91C496.049 403.774 495.857 403.825 495.834 403.941C495.14 407.453 494.216 410.582 492.809 413.887C492.71 414.119 493.027 414.303 493.186 414.108Z" fill="#263238"/>
<path d="M514.531 381.107C516.978 378.007 512.164 374.199 509.713 377.304C507.266 380.404 512.079 384.212 514.531 381.107Z" fill="#263238"/>
<path d="M505.735 418.52C508 418.043 508.265 415.388 507.747 413.573C506.908 410.634 504.941 407.511 502.687 405.47C502.631 405.42 502.573 405.446 502.54 405.493C502.296 405.395 501.945 405.497 501.924 405.812C501.723 408.853 501.131 412.079 501.869 415.091C502.3 416.85 503.593 418.971 505.735 418.52ZM502.562 410.486C502.625 408.988 502.76 407.502 502.767 406.003C503.75 407.586 504.796 409.119 505.618 410.8C506.01 411.603 506.398 412.434 506.678 413.284C507.113 414.606 507.269 419.142 504.051 417.034C502.278 415.871 502.488 412.271 502.562 410.486Z" fill="#263238"/>
<path d="M507.104 397.81C504.829 399.917 503.547 402.936 502.04 405.585C501.884 405.86 502.121 406.138 502.379 406.191C502.38 406.249 502.415 406.303 502.489 406.292C505.494 405.83 508.856 404.306 511.175 402.315C512.607 401.086 513.848 398.723 512.22 397.078C510.679 395.521 508.432 396.58 507.104 397.81ZM509.995 397.392C513.841 397.404 511.213 401.104 510.122 401.969C509.421 402.524 508.639 403.005 507.87 403.458C506.258 404.409 504.54 405.112 502.848 405.892C503.668 404.636 504.373 403.322 505.146 402.037C506.067 400.505 507.874 397.385 509.995 397.392Z" fill="#263238"/>
<path d="M553.357 369.587L575.418 367.847C575.418 367.847 607.278 358.612 625.692 363.447C646.801 368.989 649.78 393.654 628.317 403.539C607.085 413.317 513.608 409.713 513.608 409.713L533.646 380.035C533.646 380.035 564.422 372.805 591.364 374.274L553.218 378.667L553.357 369.587Z" fill="#37474F"/>
<path d="M553.579 375.864C556.862 375.324 560.181 375.056 563.493 374.748C566.831 374.438 570.178 374.197 573.524 373.986C580.198 373.566 586.905 373.427 593.589 373.682C594.216 373.706 594.841 373.744 595.467 373.779C595.6 373.737 595.743 373.717 595.881 373.686C596.203 373.615 596.524 373.543 596.85 373.487C597.456 373.384 598.066 373.308 598.675 373.228C599.944 373.061 601.217 372.954 602.48 372.744C602.557 372.731 602.584 372.847 602.507 372.863C601.236 373.117 599.984 373.458 598.712 373.707C598.345 373.779 597.978 373.85 597.61 373.916C600.059 374.096 602.503 374.336 604.946 374.609C605.023 374.618 605.023 374.737 604.944 374.731C601.618 374.466 598.263 374.372 594.927 374.359C591.614 374.346 588.303 374.35 584.991 374.471C578.294 374.715 571.597 375.176 564.919 375.734C561.172 376.047 557.414 376.433 553.655 376.512C553.29 376.52 553.208 375.925 553.579 375.864Z" fill="#263238"/>
<path d="M523.179 409.032C524.416 407.143 525.478 405.121 526.614 403.17C527.754 401.213 528.895 399.256 530.038 397.301C532.319 393.401 540.489 380.295 541.288 379.382C541.339 379.324 541.438 379.394 541.412 379.462C541.019 380.481 535.91 389.165 534.735 391.101C532.385 394.972 529.922 398.763 527.493 402.584C526.799 403.675 526.082 404.751 525.379 405.836C524.677 406.919 523.931 407.984 523.282 409.099C523.242 409.165 523.136 409.098 523.179 409.032Z" fill="#263238"/>
<path d="M632.922 420.998C632.38 419.197 601.878 376.592 599.74 375.73C599.496 375.618 585.099 385.299 585.099 385.299C584.495 386.061 557.787 379.672 557.787 379.672L556.659 412.067L605.615 412.326C605.615 412.326 612.121 416.387 618.081 419.712C618.091 419.714 618.096 419.72 618.102 419.716C621.77 421.775 625.019 423.515 625.952 423.785C628.382 424.476 633.477 422.79 632.922 420.998Z" fill="#EB9481"/>
<path d="M625.952 423.784C625.015 423.517 621.77 421.777 618.104 419.715C618.096 419.722 618.088 419.715 618.081 419.714C612.124 416.389 605.617 412.324 605.617 412.324L594.721 412.269L578.404 384.308C582.128 385.07 584.908 385.542 585.102 385.297C585.102 385.297 599.493 375.616 599.74 375.732C601.878 376.592 632.377 419.197 632.922 420.997C633.474 422.79 628.383 424.48 625.952 423.784Z" fill="white"/>
<path d="M633.209 421.061C632.636 419.215 601.991 376.63 599.796 375.744C598.965 375.404 591.939 379.49 585.098 385.298L604.888 412.729C604.888 412.729 623.538 423.252 626.05 423.965C628.556 424.67 633.782 422.907 633.209 421.061Z" fill="#FFC727"/>
<path d="M631.066 421.677C625.754 414.665 604.989 385.879 600.271 378.544C600.232 378.484 600.272 378.456 600.316 378.512C605.733 385.347 626.264 414.3 631.184 421.593C631.287 421.746 631.178 421.825 631.066 421.677Z" fill="#263238"/>
<path d="M622.548 422.329C621.261 420.685 620.874 418.452 621.218 416.804C621.549 415.22 622.365 413.481 623.881 412.466C623.924 412.437 623.982 412.514 623.943 412.552C621.443 414.97 620.818 419.277 622.637 422.264C622.674 422.325 622.592 422.386 622.548 422.329Z" fill="#263238"/>
<path d="M607.216 414.454C605.12 411.625 603.745 407.587 604.804 404.13C604.845 403.996 605.035 404.056 605.052 404.173C605.579 407.714 606.354 410.883 607.603 414.251C607.691 414.488 607.366 414.657 607.216 414.454Z" fill="#263238"/>
<path d="M609.663 416.041C607.567 413.212 606.192 409.174 607.251 405.717C607.292 405.583 607.482 405.643 607.499 405.76C608.026 409.301 608.801 412.47 610.05 415.838C610.138 416.075 609.813 416.244 609.663 416.041Z" fill="#263238"/>
<path d="M612.11 417.628C610.014 414.799 608.639 410.761 609.698 407.304C609.739 407.17 609.929 407.231 609.946 407.347C610.473 410.888 611.248 414.057 612.497 417.425C612.585 417.662 612.26 417.831 612.11 417.628Z" fill="#263238"/>
<path d="M614.557 419.215C612.461 416.386 611.086 412.348 612.145 408.891C612.186 408.757 612.376 408.817 612.393 408.934C612.92 412.475 613.695 415.644 614.944 419.012C615.032 419.249 614.707 419.418 614.557 419.215Z" fill="#263238"/>
<path d="M594.799 385.241C592.501 382.029 597.49 378.452 599.791 381.67C602.089 384.883 597.1 388.459 594.799 385.241Z" fill="#263238"/>
<path d="M605.837 419.787C606.717 416.814 606.279 413.563 606.222 410.516C606.216 410.2 605.87 410.082 605.622 410.168C605.591 410.119 605.534 410.09 605.476 410.138C603.128 412.07 601.015 415.097 600.038 417.992C599.435 419.78 599.574 422.445 601.814 423.029C603.932 423.58 605.324 421.523 605.837 419.787ZM603.566 421.623C600.253 423.576 600.623 419.053 601.12 417.753C601.439 416.917 601.866 416.105 602.296 415.322C603.197 413.681 604.315 412.2 605.371 410.665C605.307 412.164 605.372 413.654 605.364 415.153C605.353 416.94 605.393 420.546 603.566 421.623Z" fill="#263238"/>
<path d="M596.352 401.303C594.648 402.869 595.776 405.288 597.148 406.584C599.37 408.682 602.656 410.363 605.636 410.967C605.709 410.982 605.747 410.929 605.75 410.872C606.01 410.832 606.26 410.565 606.117 410.283C604.737 407.566 603.599 404.49 601.427 402.277C600.159 400.985 597.964 399.822 596.352 401.303ZM603.183 406.591C603.894 407.911 604.536 409.258 605.296 410.551C603.643 409.691 601.961 408.908 600.395 407.882C599.648 407.393 598.89 406.876 598.216 406.288C597.167 405.373 594.717 401.553 598.56 401.723C600.678 401.816 602.335 405.018 603.183 406.591Z" fill="#263238"/>
<path d="M556.57 369.697L534.608 369.114C534.608 369.114 511.931 357.462 493.309 361.419C471.961 365.956 468.542 392.528 484.148 402.369C503.92 414.838 593.374 414.9 593.374 414.9L574.918 381.633C574.918 381.633 545.357 374.587 518.375 374.778L556.271 380.972L556.57 369.697Z" fill="#37474F"/>
<path d="M576.149 383.781C576.126 383.74 576.123 383.658 576.113 383.612C576.103 383.566 576.093 383.52 576.083 383.474C576.059 383.367 576.034 383.261 576.007 383.155C575.951 382.934 575.878 382.723 575.8 382.508C575.722 382.294 575.636 382.086 575.545 381.877C575.451 381.662 575.321 381.487 575.199 381.289C575.187 381.269 575.165 381.265 575.148 381.251C575.138 381.242 575.127 381.234 575.114 381.226C575.097 381.218 575.084 381.208 575.066 381.205C575.049 381.198 575.037 381.188 575.018 381.184C571.765 380.489 549.635 376.721 546.342 376.256C543.022 375.788 539.69 375.389 536.358 375.02C529.712 374.284 523.019 373.829 516.33 373.767C515.703 373.761 515.076 373.769 514.45 373.775C514.319 373.727 514.177 373.699 514.041 373.663C513.722 373.577 513.405 373.489 513.083 373.418C512.483 373.286 511.877 373.182 511.273 373.073C510.013 372.846 508.747 372.678 507.496 372.409C507.42 372.393 507.387 372.507 507.463 372.526C508.721 372.84 509.955 373.239 511.214 373.549C511.577 373.638 511.94 373.727 512.304 373.81C509.849 373.874 507.396 373.998 504.943 374.154C504.866 374.159 504.86 374.278 504.939 374.276C508.274 374.169 511.629 374.233 514.962 374.378C518.272 374.522 521.579 374.683 524.881 374.96C531.559 375.521 538.227 376.298 544.87 377.172C548.597 377.662 571.159 381.569 574.91 381.826C574.927 381.827 574.94 381.821 574.956 381.82C574.984 381.907 575.013 381.994 575.053 382.079C575.15 382.286 575.249 382.49 575.355 382.692C575.457 382.887 575.558 383.08 575.675 383.267C575.733 383.36 575.792 383.452 575.852 383.544C575.882 383.59 575.912 383.636 575.942 383.682C575.967 383.721 576.023 383.781 576.036 383.826C576.062 383.912 576.193 383.859 576.149 383.781Z" fill="#263238"/>
<path d="M586.456 412.725C585.31 410.779 584.344 408.71 583.302 406.707C582.256 404.698 581.209 402.689 580.159 400.682C578.065 396.678 570.525 383.2 569.77 382.25C569.722 382.19 569.62 382.255 569.642 382.324C569.986 383.36 574.679 392.277 575.761 394.266C577.925 398.244 580.205 402.148 582.451 406.079C583.093 407.202 583.758 408.31 584.409 409.427C585.059 410.542 585.754 411.641 586.349 412.786C586.387 412.855 586.496 412.793 586.456 412.725Z" fill="#263238"/>
<path d="M534.092 368.732C534.914 369.601 587.102 370.796 587.365 370.467C588.079 369.569 581.339 336.45 575.885 323.793C568.892 307.564 564.964 306.104 562.622 305.137C559.627 303.901 554.178 304.193 552.862 304.741C551.37 305.354 544.891 312.618 542.948 318.493C539.048 330.291 533.376 367.969 534.092 368.732Z" fill="#FFC727"/>
<path d="M555.88 325.83C555.53 326.49 555.35 327.17 555.2 327.87C555.08 328.56 555 329.28 555.07 330.01C555.43 329.35 555.61 328.67 555.76 327.97C555.87 327.28 555.96 326.56 555.88 325.83ZM563.22 359.96C562.88 360.61 562.69 361.3 562.55 361.99C562.42 362.69 562.34 363.39 562.41 364.14C562.76 363.48 562.94 362.79 563.09 362.1C563.21 361.39 563.3 360.69 563.22 359.96ZM543.31 344.62C542.96 345.28 542.77 345.97 542.63 346.66C542.51 347.37 542.42 348.07 542.5 348.8C542.85 348.15 543.03 347.46 543.18 346.77C543.29 346.07 543.39 345.37 543.31 344.62ZM577.95 341.83C577.6 342.49 577.42 343.17 577.27 343.88C577.15 344.57 577.07 345.28 577.14 346.01C577.5 345.37 577.68 344.67 577.83 343.98C577.94 343.28 578.03 342.58 577.95 341.83ZM561.6 307.59C560.9 307.46 560.19 307.38 559.45 307.45C560.11 307.8 560.79 307.98 561.49 308.13C562.18 308.26 562.9 308.35 563.63 308.26C562.97 307.92 562.29 307.73 561.6 307.59ZM577.97 329.38C577.41 329.12 576.82 328.97 576.23 328.84C575.54 328.72 574.82 328.64 574.09 328.71C574.75 329.06 575.43 329.24 576.13 329.39C576.74 329.5 577.38 329.58 578.02 329.53C578.11 329.54 578.19 329.53 578.27 329.52C578.17 329.47 578.07 329.42 577.97 329.38ZM542 321.73C541.96 321.9 541.91 322.07 541.86 322.25C542.49 322.36 543.12 322.42 543.79 322.35C543.22 322.04 542.61 321.87 542 321.73ZM549.56 367.92C548.86 367.8 548.15 367.71 547.41 367.79C548.07 368.14 548.76 368.33 549.45 368.47C550.15 368.59 550.86 368.68 551.59 368.6C550.94 368.25 550.25 368.07 549.56 367.92ZM550.84 339.2C550.14 339.09 549.43 338.99 548.69 339.08C549.35 339.43 550.04 339.61 550.73 339.76C551.44 339.88 552.14 339.96 552.87 339.89C552.22 339.53 551.53 339.35 550.84 339.2ZM587.23 368.2C586.92 368.19 586.61 368.19 586.29 368.22C586.62 368.4 586.96 368.53 587.29 368.64C587.27 368.5 587.25 368.35 587.23 368.2ZM569.69 352.39C569 352.26 568.28 352.17 567.55 352.25C568.21 352.6 568.89 352.78 569.58 352.93C570.28 353.06 571 353.14 571.73 353.06C571.07 352.72 570.39 352.52 569.69 352.39ZM551.48 315.61C551.07 315.04 550.63 314.47 550.05 314.01C550.28 314.72 550.63 315.34 551.01 315.93C551.42 316.51 551.86 317.07 552.44 317.54C552.22 316.83 551.86 316.21 551.48 315.61ZM551.11 356.72C550.7 356.13 550.26 355.58 549.68 355.11C549.9 355.82 550.25 356.43 550.65 357.03C551.05 357.61 551.49 358.17 552.06 358.64C551.85 357.93 551.5 357.32 551.11 356.72ZM571.95 368.04C571.55 367.46 571.11 366.9 570.54 366.43C570.75 367.14 571.11 367.75 571.5 368.35C571.9 368.94 572.34 369.5 572.92 369.96C572.7 369.25 572.35 368.64 571.95 368.04ZM566.95 335.49C566.55 334.91 566.11 334.35 565.53 333.88C565.75 334.59 566.11 335.2 566.49 335.8C566.9 336.38 567.33 336.95 567.92 337.41C567.69 336.7 567.34 336.09 566.95 335.49ZM542.63 330.54C542.06 330.95 541.5 331.38 541.03 331.96C541.74 331.75 542.36 331.38 542.94 331C543.53 330.6 544.09 330.16 544.56 329.57C543.85 329.8 543.23 330.15 542.63 330.54ZM538.63 360.68C538.06 361.08 537.5 361.52 537.03 362.1C537.74 361.88 538.36 361.53 538.95 361.14C539.53 360.73 540.09 360.3 540.56 359.72C539.85 359.93 539.23 360.28 538.63 360.68ZM559.46 346.05C558.87 346.45 558.31 346.89 557.84 347.46C558.55 347.25 559.17 346.9 559.77 346.5C560.35 346.1 560.91 345.66 561.37 345.08C560.66 345.3 560.04 345.65 559.46 346.05ZM579.49 359.82C578.9 360.22 578.35 360.67 577.88 361.25C578.59 361.02 579.21 360.67 579.79 360.28C580.38 359.87 580.94 359.44 581.41 358.86C580.7 359.07 580.08 359.44 579.49 359.82ZM565.38 319.11C564.79 319.52 564.24 319.95 563.77 320.54C564.48 320.32 565.09 319.97 565.69 319.57C566.27 319.17 566.84 318.73 567.3 318.16C566.59 318.37 565.98 318.72 565.38 319.11Z" fill="white"/>
<path d="M571.268 309.531C593.772 326.444 613.232 349.914 611.363 357.344C609.387 365.2 593.83 373.995 580.094 375.787C577.28 376.154 568.576 355.524 571.458 354.576C573.703 353.837 583.913 350.935 585.134 349.534C585.983 348.561 570.138 326.27 564.983 314.633C559.589 302.454 565.243 305.003 571.268 309.531Z" fill="#EB9481"/>
<path d="M577.258 353.949C577.258 353.949 568.671 354.813 563.081 355.642C559.963 356.104 554.687 357.374 552.552 358.762C549.358 360.838 537.325 371.558 539.861 374.531C542.157 377.223 545.623 372.963 545.623 372.963C545.623 372.963 541.398 377.263 544.495 379.233C547.621 381.221 551.595 375.232 551.595 375.232C551.595 375.232 546.792 379.486 550.3 381.274C553.345 382.825 558.671 376.426 558.671 376.426C558.671 376.426 553.139 380.339 556.103 382.234C559.378 384.328 568.569 375.736 568.569 375.736C575.92 376.556 580.445 376.056 585.624 374.603C586.576 374.335 577.258 353.949 577.258 353.949Z" fill="#EB9481"/>
<path d="M550.305 376.668C550.637 376.211 550.981 375.763 551.314 375.306C551.968 374.411 552.614 373.543 553.37 372.729C554.101 371.943 554.863 371.194 555.65 370.465C556.481 369.695 557.396 369.006 558.207 368.216C558.272 368.152 558.361 368.248 558.292 368.309C557.461 369.042 556.74 369.936 556 370.759C555.267 371.575 554.545 372.401 553.824 373.228C553.118 374.036 552.364 374.79 551.636 375.577C551.273 375.969 550.928 376.378 550.583 376.785C550.26 377.167 549.959 377.608 549.574 377.929C549.536 377.961 549.486 377.91 549.504 377.87C549.696 377.435 550.027 377.05 550.305 376.668Z" fill="#263238"/>
<path d="M544.762 373.875C545.173 373.014 547.759 369.791 548.469 369.006C549.841 367.49 551.355 366.089 553.001 364.876C553.058 364.834 553.134 364.915 553.086 364.969C551.72 366.495 550.329 368.004 548.941 369.512C548.262 370.249 545.283 373.692 544.926 374.013C544.84 374.091 544.717 373.968 544.762 373.875Z" fill="#263238"/>
<path d="M555.446 379.429C555.879 378.626 558.329 375.627 559.015 374.915C559.66 374.246 562.652 371.812 563.627 371.256C563.689 371.221 563.765 371.3 563.712 371.348C562.274 372.68 560.817 373.982 559.443 375.382C558.774 376.064 556.263 378.936 555.567 379.532C555.505 379.585 555.408 379.499 555.446 379.429Z" fill="#263238"/>
<path d="M596.291 330.38L579.154 341.49C579.154 341.49 566.44 321.806 563.14 312.48C559.84 303.154 563.689 303.134 572.682 309.889C581.673 316.644 596.291 330.38 596.291 330.38Z" fill="#FFC727"/>
<path d="M565.92 318.78C566 318.93 566.07 319.08 566.15 319.24C566.57 318.92 566.96 318.58 567.3 318.16C566.8 318.31 566.35 318.52 565.92 318.78ZM585.54 331.35C584.95 331.76 584.4 332.19 583.93 332.78C584.63 332.55 585.25 332.2 585.85 331.81C586.43 331.41 587 330.97 587.45 330.39C586.75 330.61 586.14 330.96 585.54 331.35ZM585.33 323.14C584.93 322.57 584.48 322 583.91 321.54C584.13 322.25 584.48 322.87 584.86 323.46C585.28 324.04 585.72 324.6 586.29 325.07C586.08 324.36 585.72 323.74 585.33 323.14ZM576.23 328.84C575.54 328.72 574.82 328.64 574.09 328.71C574.75 329.06 575.43 329.24 576.13 329.39C576.82 329.51 577.54 329.6 578.27 329.52C577.61 329.17 576.93 328.99 576.23 328.84ZM594.96 329.15C594.71 329.14 594.46 329.15 594.2 329.17C594.64 329.4 595.08 329.56 595.54 329.68C595.38 329.52 595.18 329.34 594.96 329.15ZM561.98 307.68C561.99 307.85 562 308.03 562.03 308.21C562.55 308.29 563.09 308.33 563.63 308.26C563.09 307.98 562.54 307.8 561.98 307.68ZM576.52 314.01C576.17 314.67 575.98 315.35 575.84 316.05C575.72 316.74 575.63 317.45 575.71 318.19C576.06 317.53 576.24 316.85 576.39 316.15C576.51 315.45 576.59 314.74 576.52 314.01Z" fill="white"/>
<path d="M592.396 327.924C585.859 333.124 579.408 336.676 578.129 337.551C578.068 337.592 578.009 337.49 578.072 337.452C579.372 336.659 586.361 331.521 592.334 327.816C592.403 327.772 592.459 327.874 592.396 327.924Z" fill="#263238"/>
<path d="M580.253 340.73C580.138 340.748 579.371 341.178 579.212 341.271C577.306 337.983 575.254 334.653 573.318 331.382C572.369 329.779 571.418 328.178 570.472 326.574C569.489 324.906 568.592 323.161 567.519 321.549C567.487 321.501 567.423 321.541 567.444 321.592C568.106 323.189 568.965 324.721 569.783 326.249C569.608 326.015 569.441 325.775 569.252 325.55C568.83 325.047 568.415 324.543 568.033 324.008C567.974 323.926 567.837 324.004 567.896 324.087C568.26 324.598 568.586 325.126 568.91 325.663C569.235 326.201 569.588 326.711 569.949 327.225C570.297 327.72 570.677 328.188 571.06 328.657C571.107 328.714 571.153 328.773 571.199 328.83C571.722 329.786 572.232 330.748 572.776 331.693C574.682 335 579.008 341.664 579.067 341.645C579.299 341.569 580.216 340.898 580.308 340.822C580.353 340.784 580.301 340.722 580.253 340.73Z" fill="#263238"/>
<path d="M543.063 310.316C524.953 320.105 507.994 331.923 504.907 339.992C502.964 345.069 505.611 354.169 507.74 359.636C508.776 362.298 533.864 351.463 531.73 349.279C526.449 343.874 525.588 341.685 526.125 340.565C526.468 339.849 546.17 322.173 551.65 314.26C559.284 303.234 550.986 306.033 543.063 310.316Z" fill="#EB9481"/>
<path d="M541.674 373.895C539.311 375.273 536.408 369.158 536.408 369.158C536.408 369.158 536.353 371.047 535.05 372.311C533.557 373.758 530.633 372.052 530.633 372.052C530.633 372.052 530.182 373.952 528.671 375.149C527.103 376.39 523.907 375.09 523.907 375.09C523.907 375.09 522.514 376.629 520.467 376.727C516.966 376.893 513.917 372.493 511.95 369.716C509.983 366.939 507.006 357.219 506.251 355.425L523.967 342.649C523.967 342.649 536.329 352.593 538.178 356.187C539.735 359.213 545.286 371.789 541.674 373.895Z" fill="#EB9481"/>
<path d="M536.448 369.07C535.565 365.454 533.817 362.056 532.095 358.796C532.057 358.723 531.943 358.785 531.983 358.857C533.733 362.079 534.664 365.847 536.283 369.133C536.327 369.224 536.471 369.168 536.448 369.07Z" fill="#263238"/>
<path d="M530.825 371.828C530.6 371.016 530.109 370.28 529.682 369.562C529.223 368.789 528.75 368.024 528.266 367.266C527.296 365.749 526.292 364.254 525.244 362.79C525.198 362.725 525.087 362.78 525.132 362.851C526.096 364.365 527.037 365.893 527.936 367.445C528.386 368.222 528.829 369.003 529.268 369.787C529.676 370.516 530.045 371.319 530.608 371.945C530.691 372.037 530.859 371.95 530.825 371.828Z" fill="#263238"/>
<path d="M523.869 375.024C523.702 374.31 523.133 373.64 522.731 373.039C522.275 372.357 521.822 371.673 521.374 370.986C520.477 369.612 519.58 368.238 518.732 366.834C518.69 366.764 518.577 366.824 518.62 366.895C519.475 368.326 520.31 369.769 521.178 371.192C521.604 371.891 522.034 372.588 522.468 373.282C522.837 373.872 523.231 374.652 523.802 375.072C523.834 375.096 523.877 375.06 523.869 375.024Z" fill="#263238"/>
<path d="M516.915 324.967L530.499 337.86C530.499 337.86 547.831 322.003 552.782 313.438C557.733 304.874 553.953 304.149 543.876 309.144C533.8 314.139 516.915 324.967 516.915 324.967Z" fill="#FFC727"/>
<path d="M540.87 312.43C540.29 312.83 539.74 313.27 539.27 313.85C539.97 313.63 540.59 313.28 541.18 312.88C541.77 312.48 542.33 312.04 542.79 311.47C542.09 311.68 541.47 312.03 540.87 312.43ZM532.2 331.43C531.79 330.85 531.36 330.29 530.78 329.83C531 330.53 531.36 331.14 531.74 331.74C532.14 332.33 532.58 332.89 533.17 333.35C532.94 332.65 532.59 332.03 532.2 331.43ZM550.05 314.01C550.28 314.72 550.63 315.34 551.01 315.93C551.03 315.96 551.05 315.99 551.08 316.02C551.2 315.86 551.32 315.69 551.42 315.53C551.03 314.99 550.6 314.45 550.05 314.01ZM541.75 321.67C541.05 321.55 540.35 321.46 539.6 321.54C540.26 321.89 540.95 322.07 541.65 322.22C542.35 322.34 543.05 322.43 543.79 322.35C543.14 322 542.44 321.82 541.75 321.67ZM522.19 325.55C521.48 325.44 520.78 325.34 520.04 325.43C520.7 325.78 521.39 325.96 522.08 326.11C522.78 326.22 523.48 326.31 524.22 326.24C523.57 325.88 522.88 325.7 522.19 325.55ZM531.66 319.42C531.31 320.08 531.13 320.76 530.98 321.46C530.86 322.15 530.77 322.87 530.85 323.6C531.2 322.94 531.38 322.26 531.53 321.56C531.65 320.87 531.73 320.15 531.66 319.42Z" fill="white"/>
<path d="M533.225 334.388C526.963 329.243 522.323 323.865 521.236 322.83C521.185 322.781 521.273 322.705 521.322 322.758C522.332 323.827 528.617 329.408 533.319 334.308C533.374 334.365 533.285 334.438 533.225 334.388Z" fill="#263238"/>
<path d="M543.515 319.005C542.863 320.447 542.217 321.889 541.679 323.375C541.686 323.276 541.691 323.177 541.698 323.078C541.755 322.166 541.876 321.273 542.065 320.379C542.086 320.28 541.933 320.239 541.912 320.338C541.723 321.232 541.556 322.138 541.427 323.043C541.365 323.478 541.332 323.917 541.306 324.355C541.303 324.4 541.296 324.458 541.29 324.512C541.284 324.531 541.277 324.549 541.271 324.568C540.657 326.543 540.277 328.563 539.752 330.559C539.726 330.658 539.879 330.698 539.905 330.6C540.42 328.644 541.174 326.746 541.832 324.834C542.489 322.924 543.012 320.974 543.64 319.056C543.661 318.985 543.546 318.935 543.515 319.005Z" fill="#263238"/>
<path d="M554.652 313.875C557.643 314.452 562.538 309.715 564.393 305.964C564.519 305.706 564.023 303.072 563.572 299.842C563.306 297.881 563.056 295.691 562.972 293.677C562.957 293.263 550.465 297.272 550.465 297.272C550.465 297.272 551.883 301.443 552.007 304.956C552.014 305.25 551.997 305.524 551.955 305.786C551.952 305.824 551.943 305.871 551.942 305.924C551.751 307.505 551.762 313.315 554.652 313.875Z" fill="#EB9481"/>
<path d="M562.197 293.761C561.753 297.191 559.976 305.508 553.241 305.941C552.772 305.972 552.34 305.966 551.945 305.925C551.939 305.869 551.951 305.827 551.955 305.786C551.993 305.522 552.015 305.251 552.01 304.958C551.884 301.439 550.463 297.268 550.463 297.268C550.463 297.268 559.476 294.377 562.197 293.761Z" fill="#263238"/>
<path d="M561.008 277.05C563.418 281.071 564.247 294.213 561.849 297.786C558.372 302.965 551.123 305.18 546.33 300.645C541.684 296.249 540.907 279.103 543.731 275.697C547.889 270.678 557.448 271.11 561.008 277.05Z" fill="#EB9481"/>
<path d="M551.564 289.265C551.569 289.231 551.636 289.302 551.637 289.339C551.669 290.226 551.855 291.236 552.676 291.475C552.701 291.482 552.702 291.527 552.672 291.525C551.686 291.454 551.452 290.111 551.564 289.265Z" fill="#263238"/>
<path d="M552.291 288.287C553.707 288.082 554.012 290.929 552.7 291.119C551.41 291.306 551.104 288.459 552.291 288.287Z" fill="#263238"/>
<path d="M546.63 289.821C546.62 289.788 546.565 289.87 546.57 289.906C546.692 290.785 546.685 291.812 545.919 292.19C545.895 292.202 545.902 292.246 545.931 292.239C546.891 291.998 546.887 290.634 546.63 289.821Z" fill="#263238"/>
<path d="M545.744 288.984C544.314 289.029 544.508 291.885 545.833 291.844C547.137 291.804 546.943 288.947 545.744 288.984Z" fill="#263238"/>
<path d="M553.362 285.895C552.96 285.91 552.587 285.857 552.188 285.83C551.738 285.8 551.376 285.823 551.003 285.536C550.803 285.382 550.76 285.013 550.891 284.805C551.197 284.32 551.757 284.219 552.301 284.233C552.891 284.248 553.341 284.41 553.788 284.793C554.222 285.164 553.892 285.875 553.362 285.895Z" fill="#263238"/>
<path d="M544.215 287.047C544.603 286.94 544.943 286.777 545.315 286.632C545.736 286.468 546.087 286.381 546.356 285.995C546.5 285.788 546.43 285.424 546.242 285.264C545.805 284.894 545.24 284.966 544.726 285.143C544.168 285.334 543.787 285.625 543.476 286.125C543.175 286.609 543.704 287.187 544.215 287.047Z" fill="#263238"/>
<path d="M553.915 297.302C553.726 297.531 553.546 297.838 553.229 297.899C552.925 297.958 552.55 297.858 552.257 297.779C552.228 297.771 552.203 297.804 552.224 297.828C552.489 298.142 552.994 298.302 553.395 298.187C553.787 298.074 553.947 297.708 554.005 297.333C554.012 297.28 553.943 297.268 553.915 297.302Z" fill="#263238"/>
<path d="M552.705 294.761C552.294 295.579 551.613 296.076 550.844 296.312C550.501 296.42 550.134 296.472 549.769 296.477C549.698 296.483 549.626 296.483 549.56 296.476C549.495 296.475 549.436 296.474 549.364 296.467C549.259 296.463 549.194 296.384 549.166 296.289V296.283C549.163 296.251 549.161 296.225 549.165 296.192C549.165 296.192 549.165 296.192 549.164 296.185L549.157 296.108C549.066 295.431 549.021 294.391 549.021 294.391C548.786 294.542 547.582 295.247 547.564 294.89C547.424 291.935 547.269 288.648 547.754 285.678C547.765 285.579 547.915 285.586 547.917 285.683C548.164 288.518 547.91 291.377 548.112 294.229C548.499 294.032 549.127 293.678 549.483 293.646C549.582 293.664 549.534 295.657 549.599 295.958C549.599 295.958 549.6 295.971 549.608 295.99C550.764 296.013 551.587 295.576 552.613 294.692C552.674 294.633 552.751 294.685 552.705 294.761Z" fill="#263238"/>
<path d="M550.133 296.09C550.133 296.09 550.822 296.838 551.678 297.043C551.993 297.12 552.325 297.127 552.658 296.999C553.342 296.738 553.291 296.09 553.102 295.551C552.948 295.107 552.696 294.738 552.696 294.738C552.696 294.738 551.771 295.811 550.133 296.09Z" fill="#263238"/>
<path d="M551.678 297.042C551.993 297.119 552.325 297.126 552.658 296.998C553.342 296.737 553.291 296.089 553.102 295.55C552.355 295.709 551.663 296.302 551.678 297.042Z" fill="#FF98B9"/>
<path d="M563.199 288.128C559.946 288.851 557.982 283.093 557.982 283.093C557.982 283.093 552.194 283.44 550.433 279.421C550.433 279.421 545.9 284 541.393 283.43C536.886 282.86 536.696 277.952 536.93 276.84C537.164 275.728 539.896 277.078 539.896 277.078C539.896 277.078 539.558 274.353 540.209 273.92C540.86 273.487 541.998 274.926 541.998 274.926C541.998 274.926 546.957 271.913 551.858 270.952C556.759 269.991 560.278 274.354 560.278 274.354C560.278 274.354 563.006 274.319 564.262 275.952C565.518 277.584 565.272 287.667 563.199 288.128Z" fill="#263238"/>
<path d="M550.317 278.599C550.538 279.46 550.888 280.279 551.389 280.978C551.902 281.667 552.572 282.222 553.358 282.544C554.149 282.859 555.011 282.953 555.88 282.957C556.314 282.944 556.75 282.889 557.188 282.849C557.622 282.775 558.054 282.687 558.499 282.624C558.083 282.78 557.656 282.911 557.23 283.056C556.791 283.14 556.348 283.234 555.899 283.288C554.996 283.364 554.063 283.28 553.193 282.942C552.335 282.58 551.595 281.945 551.115 281.162C550.64 280.378 550.363 279.49 550.317 278.599Z" fill="#263238"/>
<path d="M560.459 275.011C559.822 273.716 558.893 272.564 557.717 271.781C556.55 270.986 555.139 270.606 553.735 270.674C553.385 270.706 553.028 270.673 552.682 270.753L551.64 270.967C550.954 271.144 550.291 271.421 549.619 271.661C548.978 271.98 548.314 272.26 547.687 272.612C547.065 272.974 546.449 273.35 545.814 273.704C546.392 273.27 546.988 272.856 547.578 272.43C548.189 272.037 548.847 271.718 549.482 271.358C550.814 270.777 552.226 270.262 553.723 270.243C555.2 270.205 556.72 270.613 557.908 271.511C559.103 272.392 559.984 273.643 560.459 275.011Z" fill="#263238"/>
<path d="M560.869 287.963C560.869 287.963 562.796 283.229 564.881 283.826C566.966 284.423 566.165 290.832 564.174 292.137C562.182 293.442 560.938 291.622 560.938 291.622L560.869 287.963Z" fill="#EB9481"/>
<path d="M564.606 285.657C564.64 285.646 564.658 285.693 564.631 285.713C563.246 286.678 562.765 288.276 562.536 289.87C562.861 289.202 563.409 288.752 564.288 289.12C564.334 289.139 564.31 289.21 564.265 289.211C563.61 289.219 563.183 289.43 562.875 290.027C562.657 290.449 562.554 290.944 562.433 291.402C562.393 291.555 562.13 291.538 562.146 291.369C562.147 291.357 562.149 291.343 562.151 291.331C561.669 289.394 562.562 286.328 564.606 285.657Z" fill="#263238"/>
<path d="M565.991 306.776C564.692 308.562 563.46 310.38 561.97 312.006C560.575 313.529 558.871 314.937 556.827 315.307C554.848 315.665 552.819 315.433 551.868 313.057C551.114 311.172 551.036 309.171 551.16 306.664C551.165 306.55 551.016 306.538 551.01 306.654C550.837 309.887 550.794 314.875 553.794 315.724C557.149 316.674 560.186 314.722 562.272 312.28C563.684 310.627 565.033 308.767 566.054 306.821C566.074 306.781 566.017 306.74 565.991 306.776Z" fill="#263238"/>
<path d="M572.013 380.736H514.41V383.32H572.013V380.736Z" fill="#C7C7C7"/>
<path d="M559.687 380.736L561.659 383.319H514.41V380.736H559.687Z" fill="#A6A6A6"/>
<path d="M557.223 383.317H501.085L496.412 345.19H552.55L557.223 383.317Z" fill="#C7C7C7"/>
<path d="M530.235 364.253C530.268 366.14 528.765 367.67 526.878 367.67C524.991 367.67 523.434 366.14 523.401 364.253C523.368 362.366 524.871 360.836 526.758 360.836C528.645 360.836 530.201 362.366 530.235 364.253Z" fill="white"/>
<path d="M388.231 302.592H294.592V362.324H388.231V302.592Z" fill="white"/>
<path d="M388.822 362.916H294V302H388.822V362.916ZM295.184 361.732H387.638V303.184H295.184V361.732Z" fill="#EBEBEB"/>
<path d="M388.231 302.592H294.592V313.888H388.231V302.592Z" fill="#455A64"/>
<path d="M388.822 314.48H294V302H388.822V314.48ZM295.184 313.296H387.638V303.184H295.184V313.296Z" fill="#EBEBEB"/>
<path d="M305.196 308.322C305.196 309.892 303.923 311.165 302.353 311.165C300.783 311.165 299.51 309.892 299.51 308.322C299.51 306.752 300.783 305.479 302.353 305.479C303.923 305.479 305.196 306.752 305.196 308.322Z" fill="#FFC727"/>
<path d="M316.805 308.322C316.805 309.892 315.532 311.165 313.962 311.165C312.392 311.165 311.119 309.892 311.119 308.322C311.119 306.752 312.392 305.479 313.962 305.479C315.532 305.479 316.805 306.752 316.805 308.322Z" fill="#EBEBEB"/>
<path d="M328.414 308.322C328.414 309.892 327.141 311.165 325.571 311.165C324.001 311.165 322.728 309.892 322.728 308.322C322.728 306.752 324.001 305.479 325.571 305.479C327.141 305.479 328.414 306.752 328.414 308.322Z" fill="white"/>
<path d="M373 320H309V355H373V320Z" fill="white"/>
<path d="M326.377 340.89C326.933 342.292 328.541 343.312 330.426 343.312C332.775 343.312 334.691 341.732 334.691 339.82V329.703C334.691 328.913 335.463 328.301 336.421 328.301C337.348 328.301 338.121 328.913 338.121 329.703V339.82C338.121 343.312 334.66 346.139 330.428 346.139C327.03 346.139 324.124 344.305 323.136 341.756C322.827 340.991 323.351 340.201 324.217 339.996C325.143 339.743 326.099 340.151 326.377 340.89Z" fill="#263238"/>
<path d="M342.425 341.705C342.98 341.145 344.001 341.068 344.68 341.527C346.041 342.445 348.389 343.515 350.584 343.489C352.129 343.489 353.518 343.107 354.445 342.547C355.373 341.985 355.773 341.348 355.773 340.712C355.773 340.382 355.68 340.152 355.495 339.897C355.31 339.644 355.031 339.387 354.568 339.132C353.673 338.649 352.158 338.215 350.334 337.935H350.273C348.821 337.705 347.46 337.4 346.287 336.941C345.113 336.483 344.093 335.845 343.413 334.953C342.95 334.343 342.702 333.628 342.702 332.864C342.702 331.334 343.751 330.009 345.174 329.144C346.628 328.278 348.512 327.794 350.521 327.794C353.488 327.794 355.68 328.991 357.256 329.833C357.966 330.241 358.183 331.056 357.689 331.642C357.225 332.253 356.237 332.432 355.495 332.025C353.919 331.158 352.406 330.393 350.521 330.393C349.13 330.393 347.893 330.75 347.06 331.26C346.226 331.77 345.886 332.33 345.886 332.867C345.886 333.173 345.947 333.376 346.102 333.581C346.256 333.784 346.535 334.014 346.936 334.243C347.739 334.701 349.13 335.11 350.799 335.365H350.86C352.436 335.62 353.888 335.951 355.123 336.435C356.39 336.945 357.504 337.607 358.214 338.55C358.677 339.162 358.954 339.927 358.954 340.717C358.954 342.347 357.842 343.749 356.296 344.666C354.782 345.583 352.774 346.118 350.58 346.118C347.243 346.093 344.431 344.718 342.669 343.571C341.992 343.107 341.9 342.267 342.425 341.705Z" fill="#263238"/>
</svg>
